<svg version="1.1" viewBox="0.0 0.0 960.0 540.0" fill="none" stroke="none" stroke-linecap="square" stroke-miterlimit="10" xmlns:xlink="http://www.w3.org/1999/xlink" xmlns="http://www.w3.org/2000/svg"><clipPath id="g102a9a0f6a0_0_10.0"><path d="m0 0l960.0 0l0 540.0l-960.0 0l0 -540.0z" clip-rule="nonzero"/></clipPath><g clip-path="url(#g102a9a0f6a0_0_10.0)"><path fill="#ffffff" d="m0 0l960.0 0l0 540.0l-960.0 0z" fill-rule="evenodd"/><path fill="#000000" fill-opacity="0.0" d="m129.25984 223.95276l701.48035 0l0 92.09448l-701.48035 0z" fill-rule="evenodd"/><path fill="#000000" d="m211.40428 252.5215l-13.703125 0l0 38.031265l-5.59375 0l0 -38.031265l-13.6875 0l0 -4.625l32.984375 0l0 4.625zm10.894531 10.17189q3.609375 -4.421875 9.375 -4.421875q10.0625 0 10.140625 11.328125l0 20.953125l-5.421875 0l0 -20.984375q-0.03125 -3.421875 -1.5625 -5.0625q-1.53125 -1.640625 -4.796875 -1.640625q-2.625 0 -4.625 1.40625q-1.984375 1.40625 -3.109375 3.6875l0 22.59375l-5.40625 0l0 -45.000015l5.40625 0l0 17.14064zm47.20314 27.859375q-0.46875 -0.9375 -0.765625 -3.34375q-3.78125 3.9375 -9.015625 3.9375q-4.6875153 0 -7.7031403 -2.65625q-3.0 -2.65625 -3.0 -6.734375q0 -4.9375 3.765625 -7.671875q3.7656403 -2.75 10.593765 -2.75l5.28125 0l0 -2.484375q0 -2.84375 -1.703125 -4.53125q-1.703125 -1.6875 -5.015625 -1.6875q-2.890625 0 -4.859375 1.46875q-1.9687653 1.46875 -1.9687653 3.546875l-5.4375 0q0 -2.375 1.671875 -4.578125q1.6875 -2.21875 4.578125 -3.5q2.8906403 -1.296875 6.3437653 -1.296875q5.484375 0 8.578125 2.734375q3.109375 2.734375 3.234375 7.546875l0 14.59375q0 4.359375 1.109375 6.9375l0 0.46875l-5.6875 0zm-9.0 -4.125q2.5625 0 4.84375 -1.3125q2.28125 -1.328125 3.3125 -3.4375l0 -6.5l-4.25 0q-9.968765 0 -9.968765 5.828125q0 2.546875 1.7031403 3.984375q1.703125 1.4375 4.359375 1.4375zm27.199219 -27.578125l0.171875 3.984375q3.625 -4.5625 9.484375 -4.5625q10.0625 0 10.140625 11.328125l0 20.953125l-5.421875 0l0 -20.984375q-0.03125 -3.421875 -1.5625 -5.0625q-1.53125 -1.640625 -4.796875 -1.640625q-2.625 0 -4.625 1.40625q-1.984375 1.40625 -3.109375 3.6875l0 22.59375l-5.40625 0l0 -31.703125l5.125 0zm36.82422 17.03125l-3.40625 3.53125l0 11.140625l-5.421875 0l0 -45.000015l5.421875 0l0 27.218765l2.90625 -3.484375l9.875 -10.4375l6.59375 0l-12.34375 13.25l13.78125 18.453125l-6.359375 0l-11.046875 -14.671875zm46.779297 6.734375l7.390625 -23.765625l5.796875 0l-12.75 36.59375q-2.953125 7.90625 -9.390625 7.90625l-1.03125 -0.078125l-2.015625 -0.390625l0 -4.390625l1.453125 0.125q2.765625 0 4.296875 -1.125q1.53125 -1.109375 2.53125 -4.0625l1.203125 -3.234375l-11.3125 -31.34375l5.921875 0l7.90625 23.765625zm16.152344 -8.203125q0 -4.65625 1.828125 -8.375q1.828125 -3.734375 5.09375 -5.75q3.265625 -2.015625 7.453125 -2.015625q6.484375 0 10.484375 4.484375q4.0 4.46875 4.0 11.921875l0 0.375q0 4.625 -1.78125 8.3125q-1.765625 3.671875 -5.0625 5.734375q-3.296875 2.046875 -7.578125 2.046875q-6.4375 0 -10.4375 -4.484375q-4.0 -4.484375 -4.0 -11.875l0 -0.375zm5.4375 0.640625q0 5.28125 2.453125 8.46875q2.453125 3.1875 6.546875 3.1875q4.125 0 6.5625 -3.234375q2.4375 -3.234375 2.4375 -9.0625q0 -5.21875 -2.484375 -8.453125q-2.46875 -3.234375 -6.578125 -3.234375q-4.015625 0 -6.484375 3.1875q-2.453125 3.1875 -2.453125 9.140625zm49.78125 12.359375q-3.15625 3.734375 -9.28125 3.734375q-5.078125 0 -7.734375 -2.9375q-2.640625 -2.953125 -2.671875 -8.734375l0 -20.625l5.421875 0l0 20.484375q0 7.203125 5.859375 7.203125q6.203125 0 8.265625 -4.625l0 -23.0625l5.421875 0l0 31.703125l-5.15625 0l-0.125 -3.140625zm31.023438 3.140625l0 -27.515625l-5.0 0l0 -4.1875l5.0 0l0 -3.2500153q0 -5.09375 2.71875 -7.875q2.734375 -2.78125 7.71875 -2.78125q1.875 0 3.71875 0.484375l-0.296875 4.40625q-1.375 -0.265625 -2.921875 -0.265625q-2.640625 0 -4.078125 1.546875q-1.4375 1.53125 -1.4375 4.390625l0 3.3437653l6.765625 0l0 4.1875l-6.765625 0l0 27.515625l-5.421875 0zm16.736328 -16.140625q0 -4.65625 1.828125 -8.375q1.828125 -3.734375 5.09375 -5.75q3.265625 -2.015625 7.453125 -2.015625q6.484375 0 10.484375 4.484375q4.0 4.46875 4.0 11.921875l0 0.375q0 4.625 -1.78125 8.3125q-1.765625 3.671875 -5.0625 5.734375q-3.296875 2.046875 -7.578125 2.046875q-6.4375 0 -10.4375 -4.484375q-4.0 -4.484375 -4.0 -11.875l0 -0.375zm5.4375 0.640625q0 5.28125 2.453125 8.46875q2.453125 3.1875 6.546875 3.1875q4.125 0 6.5625 -3.234375q2.4375 -3.234375 2.4375 -9.0625q0 -5.21875 -2.484375 -8.453125q-2.46875 -3.234375 -6.578125 -3.234375q-4.015625 0 -6.484375 3.1875q-2.453125 3.1875 -2.453125 9.140625zm45.53125 -11.34375q-1.234375 -0.203125 -2.65625 -0.203125q-5.34375 0 -7.25 4.546875l0 22.5l-5.40625 0l0 -31.703125l5.265625 0l0.09375 3.671875q2.65625 -4.25 7.546875 -4.25q1.59375 0 2.40625 0.40625l0 5.03125zm25.71875 26.84375l-5.40625 0l0 -45.000015l5.40625 0l0 45.000015zm14.560547 0l-5.40625 0l0 -31.703125l5.40625 0l0 31.703125zm-5.859375 -40.10939q0 -1.3125 0.8125 -2.21875q0.8125 -0.921875 2.390625 -0.921875q1.578125 0 2.390625 0.921875q0.828125 0.90625 0.828125 2.21875q0 1.3125 -0.828125 2.203125q-0.8125 0.875 -2.390625 0.875q-1.578125 0 -2.390625 -0.875q-0.8125 -0.890625 -0.8125 -2.203125zm32.998047 31.70314q0 -2.203125 -1.65625 -3.40625q-1.65625 -1.21875 -5.78125 -2.09375q-4.109375 -0.890625 -6.53125 -2.109375q-2.40625 -1.234375 -3.5625 -2.9375q-1.15625 -1.703125 -1.15625 -4.046875q0 -3.890625 3.28125 -6.578125q3.296875 -2.703125 8.4375 -2.703125q5.390625 0 8.734375 2.78125q3.359375 2.78125 3.359375 7.109375l-5.453125 0q0 -2.21875 -1.890625 -3.828125q-1.890625 -1.609375 -4.75 -1.609375q-2.96875 0 -4.640625 1.296875q-1.671875 1.28125 -1.671875 3.359375q0 1.953125 1.546875 2.953125q1.5625 1.0 5.625 1.90625q4.0625 0.90625 6.578125 2.171875q2.515625 1.25 3.734375 3.03125q1.21875 1.765625 1.21875 4.3125q0 4.25 -3.40625 6.828125q-3.390625 2.5625 -8.8125 2.5625q-3.8125 0 -6.75 -1.34375q-2.921875 -1.359375 -4.578125 -3.765625q-1.65625 -2.421875 -1.65625 -5.234375l5.421875 0q0.140625 2.71875 2.171875 4.3125q2.046875 1.59375 5.390625 1.59375q3.078125 0 4.9375 -1.234375q1.859375 -1.25 1.859375 -3.328125zm19.828125 -30.968765l0 7.6718903l5.921875 0l0 4.1875l-5.921875 0l0 19.65625q0 1.90625 0.78125 2.859375q0.796875 0.953125 2.703125 0.953125q0.9375 0 2.578125 -0.34375l0 4.390625q-2.140625 0.59375 -4.15625 0.59375q-3.625 0 -5.484375 -2.203125q-1.84375 -2.203125 -1.84375 -6.25l0 -19.65625l-5.765625 0l0 -4.1875l5.765625 0l0 -7.6718903l5.421875 0zm25.396423 39.968765q-6.4375 0 -10.484375 -4.234375q-4.046814 -4.234375 -4.046814 -11.328125l0 -1.0q0 -4.71875 1.796814 -8.421875q1.8125 -3.703125 5.046875 -5.796875q3.234375 -2.09375 7.015625 -2.09375q6.1875 0 9.609375 4.078125q3.4375 4.0625 3.4375 11.65625l0 2.25l-21.484375 0q0.125 4.6875 2.734375 7.578125q2.625 2.875 6.671875 2.875q2.875 0 4.859375 -1.171875q2.0 -1.171875 3.5 -3.09375l3.296875 2.578125q-3.984375 6.125 -11.953125 6.125zm-0.671875 -28.421875q-3.28125 0 -5.515625 2.390625q-2.21875 2.375 -2.734375 6.6875l15.875 0l0 -0.40625q-0.234375 -4.140625 -2.234375 -6.40625q-1.984375 -2.265625 -5.390625 -2.265625zm24.44336 -3.875l0.171875 3.984375q3.625 -4.5625 9.484375 -4.5625q10.0625 0 10.140625 11.328125l0 20.953125l-5.421875 0l0 -20.984375q-0.03125 -3.421875 -1.5625 -5.0625q-1.53125 -1.640625 -4.796875 -1.640625q-2.625 0 -4.625 1.40625q-1.984375 1.40625 -3.109375 3.6875l0 22.59375l-5.40625 0l0 -31.703125l5.125 0zm33.85547 31.703125l-5.40625 0l0 -31.703125l5.40625 0l0 31.703125zm-5.859375 -40.10939q0 -1.3125 0.8125 -2.21875q0.8125 -0.921875 2.390625 -0.921875q1.578125 0 2.390625 0.921875q0.828125 0.90625 0.828125 2.21875q0 1.3125 -0.828125 2.203125q-0.8125 0.875 -2.390625 0.875q-1.578125 0 -2.390625 -0.875q-0.8125 -0.890625 -0.8125 -2.203125zm19.669922 8.406265l0.171875 3.984375q3.625 -4.5625 9.484375 -4.5625q10.0625 0 10.140625 11.328125l0 20.953125l-5.421875 0l0 -20.984375q-0.03125 -3.421875 -1.5625 -5.0625q-1.53125 -1.640625 -4.796875 -1.640625q-2.625 0 -4.625 1.40625q-1.984375 1.40625 -3.109375 3.6875l0 22.59375l-5.40625 0l0 -31.703125l5.125 0zm26.683594 15.59375q0 -7.421875 3.421875 -11.796875q3.4375 -4.375 9.09375 -4.375q5.796875 0 9.046875 4.09375l0.265625 -3.515625l4.953125 0l0 30.9375q0 6.15625 -3.65625 9.703125q-3.640625 3.546875 -9.796875 3.546875q-3.421875 0 -6.703125 -1.46875q-3.28125 -1.46875 -5.015625 -4.015625l2.8125 -3.25q3.484375 4.3125 8.53125 4.3125q3.953125 0 6.15625 -2.234375q2.21875 -2.21875 2.21875 -6.265625l0 -2.734375q-3.25 3.765625 -8.875 3.765625q-5.5625 0 -9.015625 -4.484375q-3.4375 -4.484375 -3.4375 -12.21875zm5.453125 0.609375q0 5.359375 2.1875 8.421875q2.203125 3.0625 6.15625 3.0625q5.125 0 7.53125 -4.65625l0 -14.46875q-2.484375 -4.546875 -7.46875 -4.546875q-3.953125 0 -6.1875 3.078125q-2.21875 3.078125 -2.21875 9.109375z" fill-rule="nonzero"/></g></svg>